<svg width="325" height="127" viewBox="0 0 325 127" fill="none" xmlns="http://www.w3.org/2000/svg">
<path d="M144.043 11.7969C143.991 11.224 143.759 10.7786 143.348 10.4609C142.941 10.138 142.361 9.97656 141.605 9.97656C141.105 9.97656 140.689 10.0417 140.355 10.1719C140.022 10.3021 139.772 10.4818 139.605 10.7109C139.439 10.9349 139.353 11.1927 139.348 11.4844C139.337 11.724 139.384 11.9349 139.488 12.1172C139.598 12.2995 139.754 12.4609 139.957 12.6016C140.165 12.737 140.415 12.8568 140.707 12.9609C140.999 13.0651 141.327 13.1562 141.691 13.2344L143.066 13.5469C143.858 13.7188 144.556 13.9479 145.16 14.2344C145.77 14.5208 146.28 14.862 146.691 15.2578C147.108 15.6536 147.423 16.1094 147.637 16.625C147.85 17.1406 147.96 17.7187 147.965 18.3594C147.96 19.3698 147.704 20.237 147.199 20.9609C146.694 21.6849 145.967 22.2396 145.02 22.625C144.077 23.0104 142.939 23.2031 141.605 23.2031C140.267 23.2031 139.1 23.0026 138.105 22.6016C137.111 22.2005 136.337 21.5911 135.785 20.7734C135.233 19.9557 134.949 18.9219 134.934 17.6719H138.637C138.668 18.1875 138.806 18.6172 139.051 18.9609C139.296 19.3047 139.632 19.5651 140.059 19.7422C140.491 19.9193 140.991 20.0078 141.559 20.0078C142.079 20.0078 142.522 19.9375 142.887 19.7969C143.257 19.6563 143.54 19.4609 143.738 19.2109C143.936 18.9609 144.038 18.6745 144.043 18.3516C144.038 18.0495 143.944 17.7917 143.762 17.5781C143.579 17.3594 143.298 17.1719 142.918 17.0156C142.543 16.8542 142.064 16.7057 141.48 16.5703L139.809 16.1797C138.423 15.862 137.332 15.349 136.535 14.6406C135.738 13.9271 135.342 12.9635 135.348 11.75C135.342 10.7604 135.608 9.89323 136.145 9.14844C136.681 8.40365 137.423 7.82292 138.371 7.40625C139.319 6.98958 140.4 6.78125 141.613 6.78125C142.853 6.78125 143.928 6.99219 144.84 7.41406C145.757 7.83073 146.467 8.41667 146.973 9.17188C147.478 9.92708 147.736 10.8021 147.746 11.7969H144.043ZM150.49 23V11H154.123V13.2031H154.256C154.506 12.474 154.927 11.8984 155.521 11.4766C156.115 11.0547 156.823 10.8438 157.646 10.8438C158.48 10.8438 159.193 11.0573 159.787 11.4844C160.381 11.9115 160.758 12.4844 160.92 13.2031H161.045C161.269 12.4896 161.706 11.9193 162.357 11.4922C163.008 11.0599 163.776 10.8438 164.662 10.8438C165.797 10.8438 166.719 11.2083 167.427 11.9375C168.136 12.6615 168.49 13.6562 168.49 14.9219V23H164.67V15.7969C164.67 15.1979 164.516 14.7422 164.209 14.4297C163.901 14.112 163.503 13.9531 163.013 13.9531C162.487 13.9531 162.073 14.125 161.771 14.4687C161.474 14.8073 161.326 15.263 161.326 15.8359V23H157.654V15.7578C157.654 15.2005 157.503 14.7604 157.201 14.4375C156.899 14.1146 156.5 13.9531 156.006 13.9531C155.672 13.9531 155.378 14.0339 155.123 14.1953C154.868 14.3516 154.667 14.5755 154.521 14.8672C154.381 15.1589 154.31 15.5026 154.31 15.8984V23H150.49ZM174.812 23.2031C174.046 23.2031 173.367 23.0755 172.773 22.8203C172.184 22.5599 171.718 22.1693 171.374 21.6484C171.036 21.1224 170.867 20.4635 170.867 19.6719C170.867 19.0052 170.984 18.4427 171.218 17.9844C171.453 17.526 171.776 17.1536 172.187 16.8672C172.598 16.5807 173.072 16.3646 173.609 16.2187C174.145 16.0677 174.718 15.9661 175.328 15.9141C176.01 15.8516 176.559 15.7865 176.976 15.7188C177.393 15.6458 177.695 15.5443 177.882 15.4141C178.075 15.2786 178.171 15.0885 178.171 14.8437V14.8047C178.171 14.4036 178.033 14.0937 177.757 13.875C177.481 13.6562 177.109 13.5469 176.64 13.5469C176.135 13.5469 175.729 13.6562 175.421 13.875C175.114 14.0937 174.919 14.3958 174.835 14.7812L171.312 14.6562C171.416 13.9271 171.684 13.276 172.117 12.7031C172.554 12.125 173.153 11.6719 173.914 11.3437C174.679 11.0104 175.598 10.8438 176.671 10.8438C177.437 10.8438 178.143 10.9349 178.789 11.1172C179.434 11.2943 179.997 11.5547 180.476 11.8984C180.955 12.237 181.325 12.6536 181.585 13.1484C181.851 13.6432 181.984 14.2083 181.984 14.8437V23H178.39V21.3281H178.296C178.083 21.7344 177.809 22.0781 177.476 22.3594C177.148 22.6406 176.76 22.8516 176.312 22.9922C175.869 23.1328 175.369 23.2031 174.812 23.2031ZM175.992 20.7031C176.403 20.7031 176.773 20.6198 177.101 20.4531C177.434 20.2865 177.7 20.0573 177.898 19.7656C178.096 19.4687 178.195 19.125 178.195 18.7344V17.5937C178.085 17.651 177.953 17.7031 177.796 17.75C177.645 17.7969 177.479 17.8411 177.296 17.8828C177.114 17.9245 176.927 17.9609 176.734 17.9922C176.541 18.0234 176.356 18.0521 176.179 18.0781C175.82 18.1354 175.512 18.224 175.257 18.3437C175.007 18.4635 174.815 18.6198 174.679 18.8125C174.549 19 174.484 19.224 174.484 19.4844C174.484 19.8802 174.624 20.1823 174.906 20.3906C175.192 20.599 175.554 20.7031 175.992 20.7031ZM188.712 7V23H184.892V7H188.712ZM195.536 7V23H191.716V7H195.536ZM208.869 23.2422C207.744 23.2422 206.773 23.0417 205.955 22.6406C205.143 22.2396 204.518 21.7005 204.08 21.0234C203.643 20.3411 203.424 19.5833 203.424 18.75C203.424 18.1354 203.544 17.5937 203.784 17.125C204.028 16.651 204.364 16.2161 204.791 15.8203C205.224 15.4193 205.726 15.026 206.299 14.6406L209.659 12.4922C210.039 12.2526 210.307 12 210.463 11.7344C210.625 11.4687 210.705 11.2031 210.705 10.9375C210.705 10.651 210.593 10.3906 210.369 10.1563C210.151 9.92187 209.825 9.80729 209.393 9.8125C209.117 9.8125 208.877 9.86979 208.674 9.98438C208.471 10.099 208.312 10.2526 208.198 10.4453C208.088 10.638 208.034 10.8568 208.034 11.1016C208.034 11.4193 208.125 11.7448 208.307 12.0781C208.489 12.4115 208.734 12.7656 209.041 13.1406C209.354 13.5156 209.7 13.9297 210.08 14.3828L217.745 23H213.854L207.44 16.0391C207.075 15.6328 206.692 15.1771 206.291 14.6719C205.89 14.1667 205.552 13.6146 205.276 13.0156C205 12.4115 204.862 11.7552 204.862 11.0469C204.862 10.25 205.049 9.52865 205.424 8.88281C205.799 8.23698 206.325 7.72396 207.002 7.34375C207.685 6.95833 208.479 6.76562 209.385 6.76562C210.26 6.76562 211.015 6.94531 211.651 7.30469C212.286 7.66406 212.776 8.14062 213.119 8.73438C213.463 9.32812 213.635 9.97917 213.635 10.6875C213.635 11.4375 213.45 12.1276 213.08 12.7578C212.711 13.3828 212.187 13.9375 211.51 14.4219L208.221 16.7734C207.872 17.0234 207.599 17.2917 207.401 17.5781C207.203 17.8594 207.104 18.1667 207.104 18.5C207.104 18.8437 207.185 19.1432 207.346 19.3984C207.513 19.6536 207.747 19.8542 208.049 20C208.351 20.1458 208.705 20.2188 209.112 20.2188C209.653 20.2188 210.195 20.0911 210.737 19.8359C211.278 19.5755 211.773 19.2109 212.221 18.7422C212.669 18.2682 213.028 17.7083 213.299 17.0625C213.57 16.4115 213.705 15.6979 213.705 14.9219H216.784C216.784 15.8802 216.682 16.7708 216.479 17.5937C216.276 18.4115 215.971 19.1458 215.565 19.7969C215.164 20.4427 214.666 20.9792 214.073 21.4062C213.885 21.5104 213.703 21.6094 213.526 21.7031C213.349 21.7969 213.166 21.8958 212.979 22C212.364 22.4427 211.698 22.7604 210.979 22.9531C210.265 23.1458 209.562 23.2422 208.869 23.2422ZM224.791 7H229.58L233.642 16.9062H233.83L237.892 7H242.681V23H238.916V13.1719H238.783L234.939 22.8984H232.533L228.689 13.1172H228.556V23H224.791V7ZM251.275 23.2266C250.02 23.2266 248.936 22.9792 248.025 22.4844C247.119 21.9844 246.421 21.2734 245.931 20.3516C245.447 19.4245 245.205 18.3229 245.205 17.0469C245.205 15.8073 245.449 14.724 245.939 13.7969C246.429 12.8646 247.119 12.1406 248.009 11.625C248.9 11.1042 249.949 10.8438 251.158 10.8438C252.012 10.8438 252.793 10.9766 253.502 11.2422C254.21 11.5078 254.822 11.901 255.337 12.4219C255.853 12.9427 256.254 13.5859 256.541 14.3516C256.827 15.112 256.97 15.9844 256.97 16.9687V17.9219H246.541V15.7031H253.416C253.41 15.2969 253.314 14.9349 253.127 14.6172C252.939 14.2995 252.681 14.0521 252.353 13.875C252.03 13.6927 251.658 13.6016 251.236 13.6016C250.809 13.6016 250.426 13.6979 250.087 13.8906C249.749 14.0781 249.481 14.3359 249.283 14.6641C249.085 14.987 248.981 15.3542 248.97 15.7656V18.0234C248.97 18.513 249.067 18.9427 249.259 19.3125C249.452 19.6771 249.725 19.9609 250.08 20.1641C250.434 20.3672 250.856 20.4687 251.345 20.4687C251.684 20.4687 251.991 20.4219 252.267 20.3281C252.543 20.2344 252.78 20.0964 252.978 19.9141C253.176 19.7318 253.324 19.5078 253.423 19.2422L256.931 19.3437C256.785 20.1302 256.465 20.8151 255.97 21.3984C255.481 21.9766 254.837 22.4271 254.041 22.75C253.244 23.0677 252.322 23.2266 251.275 23.2266ZM263.876 23.1719C262.991 23.1719 262.186 22.9427 261.462 22.4844C260.738 22.026 260.16 21.3385 259.728 20.4219C259.296 19.5052 259.079 18.3672 259.079 17.0078C259.079 15.5964 259.303 14.4349 259.751 13.5234C260.199 12.612 260.785 11.9375 261.509 11.5C262.238 11.0625 263.022 10.8438 263.861 10.8438C264.491 10.8438 265.03 10.9531 265.478 11.1719C265.926 11.3854 266.296 11.6615 266.587 12C266.879 12.3385 267.1 12.6901 267.251 13.0547H267.329V7H271.15V23H267.368V21.0547H267.251C267.09 21.4245 266.861 21.7708 266.564 22.0937C266.267 22.4167 265.894 22.6771 265.447 22.875C265.004 23.0729 264.48 23.1719 263.876 23.1719ZM265.204 20.1953C265.668 20.1953 266.064 20.0651 266.392 19.8047C266.72 19.5391 266.973 19.1667 267.15 18.6875C267.327 18.2083 267.415 17.6458 267.415 17C267.415 16.3437 267.327 15.7786 267.15 15.3047C266.978 14.8307 266.725 14.4661 266.392 14.2109C266.064 13.9557 265.668 13.8281 265.204 13.8281C264.73 13.8281 264.329 13.9583 264.001 14.2187C263.673 14.4792 263.423 14.8464 263.251 15.3203C263.085 15.7943 263.001 16.3542 263.001 17C263.001 17.6458 263.087 18.2083 263.259 18.6875C263.431 19.1667 263.678 19.5391 264.001 19.8047C264.329 20.0651 264.73 20.1953 265.204 20.1953ZM274.138 23V11H277.958V23H274.138ZM276.052 9.60156C275.515 9.60156 275.054 9.42448 274.669 9.07031C274.284 8.71094 274.091 8.27865 274.091 7.77344C274.091 7.27344 274.284 6.84635 274.669 6.49219C275.054 6.13281 275.515 5.95312 276.052 5.95312C276.593 5.95312 277.054 6.13281 277.435 6.49219C277.82 6.84635 278.013 7.27344 278.013 7.77344C278.013 8.27865 277.82 8.71094 277.435 9.07031C277.054 9.42448 276.593 9.60156 276.052 9.60156ZM288.704 17.8203V11H292.516V23H288.876V20.7656H288.751C288.485 21.5 288.032 22.0833 287.391 22.5156C286.756 22.9427 285.988 23.1563 285.087 23.1563C284.269 23.1563 283.55 22.9687 282.93 22.5937C282.311 22.2187 281.829 21.6953 281.485 21.0234C281.141 20.3464 280.967 19.5547 280.962 18.6484V11H284.782V17.8984C284.787 18.5495 284.959 19.0625 285.298 19.4375C285.636 19.8125 286.097 20 286.68 20C287.061 20 287.402 19.9167 287.704 19.75C288.011 19.5781 288.253 19.3307 288.43 19.0078C288.613 18.6797 288.704 18.2839 288.704 17.8203ZM295.52 23V11H299.153V13.2031H299.286C299.536 12.474 299.957 11.8984 300.551 11.4766C301.145 11.0547 301.853 10.8438 302.676 10.8438C303.51 10.8438 304.223 11.0573 304.817 11.4844C305.411 11.9115 305.788 12.4844 305.95 13.2031H306.075C306.299 12.4896 306.736 11.9193 307.387 11.4922C308.038 11.0599 308.806 10.8438 309.692 10.8438C310.827 10.8438 311.749 11.2083 312.457 11.9375C313.166 12.6615 313.52 13.6562 313.52 14.9219V23H309.7V15.7969C309.7 15.1979 309.546 14.7422 309.239 14.4297C308.931 14.112 308.533 13.9531 308.043 13.9531C307.517 13.9531 307.103 14.125 306.801 14.4687C306.504 14.8073 306.356 15.263 306.356 15.8359V23H302.684V15.7578C302.684 15.2005 302.533 14.7604 302.231 14.4375C301.929 14.1146 301.53 13.9531 301.036 13.9531C300.702 13.9531 300.408 14.0339 300.153 14.1953C299.898 14.3516 299.697 14.5755 299.551 14.8672C299.411 15.1589 299.34 15.5026 299.34 15.8984V23H295.52ZM135.395 47V31H146.551V34.1406H139.262V37.4219H145.98V40.5703H139.262V43.8594H146.551V47H135.395ZM153.365 40.1562V47H149.545V35H153.177V37.2031H153.31C153.576 36.4687 154.029 35.8932 154.67 35.4766C155.31 35.0547 156.073 34.8438 156.959 34.8438C157.802 34.8438 158.534 35.0339 159.154 35.4141C159.779 35.7891 160.263 36.3151 160.607 36.9922C160.956 37.6641 161.128 38.4505 161.123 39.3516V47H157.302V40.1016C157.308 39.4349 157.138 38.9141 156.795 38.5391C156.456 38.1641 155.985 37.9766 155.381 37.9766C154.98 37.9766 154.625 38.0651 154.318 38.2422C154.016 38.4141 153.782 38.6615 153.615 38.9844C153.454 39.3073 153.37 39.6979 153.365 40.1562ZM170.833 35V37.8125H163.263V35H170.833ZM164.849 32.125H168.669V43.2266C168.669 43.4609 168.706 43.651 168.779 43.7969C168.857 43.9375 168.969 44.0391 169.115 44.1016C169.261 44.1589 169.435 44.1875 169.638 44.1875C169.784 44.1875 169.938 44.1745 170.099 44.1484C170.266 44.1172 170.391 44.0911 170.474 44.0703L171.052 46.8281C170.87 46.8802 170.612 46.9453 170.279 47.0234C169.951 47.1016 169.557 47.151 169.099 47.1719C168.203 47.2135 167.435 47.1094 166.794 46.8594C166.159 46.6042 165.672 46.2083 165.333 45.6719C165 45.1354 164.839 44.4609 164.849 43.6484V32.125ZM178.835 47.2266C177.58 47.2266 176.497 46.9792 175.585 46.4844C174.679 45.9844 173.981 45.2734 173.491 44.3516C173.007 43.4245 172.765 42.3229 172.765 41.0469C172.765 39.8073 173.01 38.724 173.499 37.7969C173.989 36.8646 174.679 36.1406 175.57 35.625C176.46 35.1042 177.51 34.8438 178.718 34.8438C179.572 34.8438 180.353 34.9766 181.062 35.2422C181.77 35.5078 182.382 35.901 182.898 36.4219C183.413 36.9427 183.814 37.5859 184.101 38.3516C184.387 39.112 184.53 39.9844 184.53 40.9687V41.9219H174.101V39.7031H180.976C180.971 39.2969 180.874 38.9349 180.687 38.6172C180.499 38.2995 180.241 38.0521 179.913 37.875C179.59 37.6927 179.218 37.6016 178.796 37.6016C178.369 37.6016 177.986 37.6979 177.648 37.8906C177.309 38.0781 177.041 38.3359 176.843 38.6641C176.645 38.987 176.541 39.3542 176.53 39.7656V42.0234C176.53 42.513 176.627 42.9427 176.82 43.3125C177.012 43.6771 177.286 43.9609 177.64 44.1641C177.994 44.3672 178.416 44.4687 178.905 44.4687C179.244 44.4687 179.551 44.4219 179.827 44.3281C180.103 44.2344 180.34 44.0964 180.538 43.9141C180.736 43.7318 180.885 43.5078 180.984 43.2422L184.491 43.3437C184.346 44.1302 184.025 44.8151 183.53 45.3984C183.041 45.9766 182.398 46.4271 181.601 46.75C180.804 47.0677 179.882 47.2266 178.835 47.2266ZM187.054 47V35H190.765V37.1875H190.89C191.108 36.3958 191.465 35.8073 191.96 35.4219C192.455 35.0312 193.03 34.8359 193.686 34.8359C193.864 34.8359 194.046 34.849 194.233 34.875C194.421 34.8958 194.595 34.9297 194.757 34.9766V38.2969C194.574 38.2344 194.335 38.1849 194.038 38.1484C193.746 38.112 193.486 38.0937 193.257 38.0937C192.804 38.0937 192.395 38.1953 192.03 38.3984C191.671 38.5964 191.387 38.875 191.179 39.2344C190.975 39.5885 190.874 40.0052 190.874 40.4844V47H187.054ZM196.885 51.5V35H200.667V37.0547H200.784C200.94 36.6901 201.161 36.3385 201.448 36C201.74 35.6615 202.109 35.3854 202.557 35.1719C203.01 34.9531 203.552 34.8438 204.182 34.8438C205.016 34.8438 205.794 35.0625 206.518 35.5C207.247 35.9375 207.836 36.612 208.284 37.5234C208.732 38.4349 208.956 39.5964 208.956 41.0078C208.956 42.3672 208.74 43.5052 208.307 44.4219C207.88 45.3385 207.302 46.026 206.573 46.4844C205.849 46.9427 205.044 47.1719 204.159 47.1719C203.555 47.1719 203.031 47.0729 202.589 46.875C202.146 46.6771 201.773 46.4167 201.471 46.0937C201.174 45.7708 200.945 45.4245 200.784 45.0547H200.706V51.5H196.885ZM200.628 41C200.628 41.6458 200.714 42.2083 200.885 42.6875C201.062 43.1667 201.315 43.5391 201.643 43.8047C201.977 44.0651 202.375 44.1953 202.839 44.1953C203.307 44.1953 203.706 44.0651 204.034 43.8047C204.362 43.5391 204.609 43.1667 204.776 42.6875C204.948 42.2083 205.034 41.6458 205.034 41C205.034 40.3542 204.948 39.7943 204.776 39.3203C204.609 38.8464 204.362 38.4792 204.034 38.2187C203.711 37.9583 203.312 37.8281 202.839 37.8281C202.37 37.8281 201.971 37.9557 201.643 38.2109C201.315 38.4661 201.062 38.8307 200.885 39.3047C200.714 39.7786 200.628 40.3437 200.628 41ZM211.53 47V35H215.241V37.1875H215.366C215.584 36.3958 215.941 35.8073 216.436 35.4219C216.931 35.0312 217.506 34.8359 218.162 34.8359C218.34 34.8359 218.522 34.849 218.709 34.875C218.897 34.8958 219.071 34.9297 219.233 34.9766V38.2969C219.05 38.2344 218.811 38.1849 218.514 38.1484C218.222 38.112 217.962 38.0937 217.733 38.0937C217.28 38.0937 216.871 38.1953 216.506 38.3984C216.147 38.5964 215.863 38.875 215.655 39.2344C215.452 39.5885 215.35 40.0052 215.35 40.4844V47H211.53ZM221.361 47V35H225.182V47H221.361ZM223.275 33.6016C222.739 33.6016 222.278 33.4245 221.893 33.0703C221.507 32.7109 221.315 32.2786 221.315 31.7734C221.315 31.2734 221.507 30.8464 221.893 30.4922C222.278 30.1328 222.739 29.9531 223.275 29.9531C223.817 29.9531 224.278 30.1328 224.658 30.4922C225.044 30.8464 225.236 31.2734 225.236 31.7734C225.236 32.2786 225.044 32.7109 224.658 33.0703C224.278 33.4245 223.817 33.6016 223.275 33.6016ZM238.662 38.6641L235.154 38.7578C235.118 38.5078 235.019 38.2865 234.857 38.0937C234.696 37.8958 234.485 37.7422 234.224 37.6328C233.969 37.5182 233.672 37.4609 233.334 37.4609C232.891 37.4609 232.513 37.5495 232.201 37.7266C231.894 37.9036 231.743 38.1432 231.748 38.4453C231.743 38.6797 231.836 38.8828 232.029 39.0547C232.227 39.2266 232.579 39.3646 233.084 39.4687L235.396 39.9062C236.594 40.1354 237.485 40.5156 238.068 41.0469C238.657 41.5781 238.954 42.2812 238.959 43.1562C238.954 43.9792 238.709 44.6953 238.224 45.3047C237.745 45.9141 237.089 46.388 236.256 46.7266C235.422 47.0599 234.469 47.2266 233.396 47.2266C231.683 47.2266 230.331 46.875 229.342 46.1719C228.357 45.4635 227.795 44.5156 227.654 43.3281L231.428 43.2344C231.511 43.6719 231.727 44.0052 232.076 44.2344C232.425 44.4635 232.87 44.5781 233.412 44.5781C233.902 44.5781 234.3 44.487 234.607 44.3047C234.915 44.1224 235.071 43.8802 235.076 43.5781C235.071 43.3073 234.951 43.0911 234.717 42.9297C234.482 42.763 234.115 42.6328 233.615 42.5391L231.521 42.1406C230.318 41.9219 229.422 41.5182 228.834 40.9297C228.245 40.3359 227.954 39.5807 227.959 38.6641C227.954 37.862 228.167 37.1771 228.599 36.6094C229.032 36.0365 229.646 35.599 230.443 35.2969C231.24 34.9948 232.18 34.8438 233.263 34.8438C234.888 34.8438 236.17 35.1849 237.107 35.8672C238.045 36.5443 238.563 37.4766 238.662 38.6641ZM247.021 47.2266C245.766 47.2266 244.683 46.9792 243.771 46.4844C242.865 45.9844 242.167 45.2734 241.677 44.3516C241.193 43.4245 240.951 42.3229 240.951 41.0469C240.951 39.8073 241.196 38.724 241.685 37.7969C242.175 36.8646 242.865 36.1406 243.755 35.625C244.646 35.1042 245.696 34.8438 246.904 34.8438C247.758 34.8438 248.539 34.9766 249.248 35.2422C249.956 35.5078 250.568 35.901 251.084 36.4219C251.599 36.9427 252 37.5859 252.287 38.3516C252.573 39.112 252.716 39.9844 252.716 40.9687V41.9219H242.287V39.7031H249.162C249.156 39.2969 249.06 38.9349 248.873 38.6172C248.685 38.2995 248.427 38.0521 248.099 37.875C247.776 37.6927 247.404 37.6016 246.982 37.6016C246.555 37.6016 246.172 37.6979 245.834 37.8906C245.495 38.0781 245.227 38.3359 245.029 38.6641C244.831 38.987 244.727 39.3542 244.716 39.7656V42.0234C244.716 42.513 244.813 42.9427 245.005 43.3125C245.198 43.6771 245.472 43.9609 245.826 44.1641C246.18 44.3672 246.602 44.4687 247.091 44.4687C247.43 44.4687 247.737 44.4219 248.013 44.3281C248.289 44.2344 248.526 44.0964 248.724 43.9141C248.922 43.7318 249.071 43.5078 249.169 43.2422L252.677 43.3437C252.531 44.1302 252.211 44.8151 251.716 45.3984C251.227 45.9766 250.584 46.4271 249.787 46.75C248.99 47.0677 248.068 47.2266 247.021 47.2266ZM265.716 38.6641L262.208 38.7578C262.172 38.5078 262.073 38.2865 261.911 38.0937C261.75 37.8958 261.539 37.7422 261.279 37.6328C261.023 37.5182 260.727 37.4609 260.388 37.4609C259.945 37.4609 259.568 37.5495 259.255 37.7266C258.948 37.9036 258.797 38.1432 258.802 38.4453C258.797 38.6797 258.891 38.8828 259.083 39.0547C259.281 39.2266 259.633 39.3646 260.138 39.4687L262.45 39.9062C263.648 40.1354 264.539 40.5156 265.122 41.0469C265.711 41.5781 266.008 42.2812 266.013 43.1562C266.008 43.9792 265.763 44.6953 265.279 45.3047C264.799 45.9141 264.143 46.388 263.31 46.7266C262.477 47.0599 261.523 47.2266 260.45 47.2266C258.737 47.2266 257.385 46.875 256.396 46.1719C255.411 45.4635 254.849 44.5156 254.708 43.3281L258.482 43.2344C258.565 43.6719 258.781 44.0052 259.13 44.2344C259.479 44.4635 259.924 44.5781 260.466 44.5781C260.956 44.5781 261.354 44.487 261.661 44.3047C261.969 44.1224 262.125 43.8802 262.13 43.5781C262.125 43.3073 262.005 43.0911 261.771 42.9297C261.536 42.763 261.169 42.6328 260.669 42.5391L258.575 42.1406C257.372 41.9219 256.477 41.5182 255.888 40.9297C255.299 40.3359 255.008 39.5807 255.013 38.6641C255.008 37.862 255.221 37.1771 255.654 36.6094C256.086 36.0365 256.7 35.599 257.497 35.2969C258.294 34.9948 259.234 34.8438 260.318 34.8438C261.943 34.8438 263.224 35.1849 264.161 35.8672C265.099 36.5443 265.617 37.4766 265.716 38.6641ZM141.309 71H135.395V55H141.301C142.931 55 144.335 55.3203 145.512 55.9609C146.694 56.5964 147.605 57.513 148.246 58.7109C148.887 59.9036 149.207 61.3307 149.207 62.9922C149.207 64.6589 148.887 66.0911 148.246 67.2891C147.611 68.487 146.702 69.4062 145.52 70.0469C144.337 70.6823 142.934 71 141.309 71ZM139.262 67.7031H141.16C142.056 67.7031 142.814 67.5521 143.434 67.25C144.059 66.9427 144.53 66.4453 144.848 65.7578C145.171 65.0651 145.332 64.1432 145.332 62.9922C145.332 61.8411 145.171 60.9245 144.848 60.2422C144.525 59.5547 144.048 59.0599 143.418 58.7578C142.793 58.4505 142.022 58.2969 141.105 58.2969H139.262V67.7031ZM157.646 71.2266C156.391 71.2266 155.308 70.9792 154.396 70.4844C153.49 69.9844 152.792 69.2734 152.302 68.3516C151.818 67.4245 151.576 66.3229 151.576 65.0469C151.576 63.8073 151.821 62.724 152.31 61.7969C152.8 60.8646 153.49 60.1406 154.381 59.625C155.271 59.1042 156.321 58.8438 157.529 58.8438C158.383 58.8438 159.164 58.9766 159.873 59.2422C160.581 59.5078 161.193 59.901 161.709 60.4219C162.224 60.9427 162.625 61.5859 162.912 62.3516C163.198 63.112 163.342 63.9844 163.342 64.9687V65.9219H152.912V63.7031H159.787C159.782 63.2969 159.685 62.9349 159.498 62.6172C159.31 62.2995 159.052 62.0521 158.724 61.875C158.401 61.6927 158.029 61.6016 157.607 61.6016C157.18 61.6016 156.797 61.6979 156.459 61.8906C156.12 62.0781 155.852 62.3359 155.654 62.6641C155.456 62.987 155.352 63.3542 155.342 63.7656V66.0234C155.342 66.513 155.438 66.9427 155.631 67.3125C155.823 67.6771 156.097 67.9609 156.451 68.1641C156.805 68.3672 157.227 68.4687 157.717 68.4687C158.055 68.4687 158.362 68.4219 158.638 68.3281C158.914 68.2344 159.151 68.0964 159.349 67.9141C159.547 67.7318 159.696 67.5078 159.795 67.2422L163.302 67.3437C163.157 68.1302 162.836 68.8151 162.342 69.3984C161.852 69.9766 161.209 70.4271 160.412 70.75C159.615 71.0677 158.693 71.2266 157.646 71.2266ZM177.183 59L173.066 71H168.691L164.581 59H168.605L170.816 67.2656H170.941L173.16 59H177.183ZM184.443 71.2266C183.187 71.2266 182.104 70.9792 181.193 70.4844C180.286 69.9844 179.588 69.2734 179.099 68.3516C178.614 67.4245 178.372 66.3229 178.372 65.0469C178.372 63.8073 178.617 62.724 179.107 61.7969C179.596 60.8646 180.286 60.1406 181.177 59.625C182.068 59.1042 183.117 58.8438 184.325 58.8438C185.18 58.8438 185.961 58.9766 186.669 59.2422C187.377 59.5078 187.989 59.901 188.505 60.4219C189.021 60.9427 189.422 61.5859 189.708 62.3516C189.995 63.112 190.138 63.9844 190.138 64.9687V65.9219H179.708V63.7031H186.583C186.578 63.2969 186.482 62.9349 186.294 62.6172C186.107 62.2995 185.849 62.0521 185.521 61.875C185.198 61.6927 184.825 61.6016 184.404 61.6016C183.976 61.6016 183.594 61.6979 183.255 61.8906C182.917 62.0781 182.648 62.3359 182.45 62.6641C182.252 62.987 182.148 63.3542 182.138 63.7656V66.0234C182.138 66.513 182.234 66.9427 182.427 67.3125C182.62 67.6771 182.893 67.9609 183.247 68.1641C183.601 68.3672 184.023 68.4687 184.513 68.4687C184.851 68.4687 185.159 68.4219 185.435 68.3281C185.711 68.2344 185.948 68.0964 186.146 67.9141C186.344 67.7318 186.492 67.5078 186.591 67.2422L190.099 67.3437C189.953 68.1302 189.633 68.8151 189.138 69.3984C188.648 69.9766 188.005 70.4271 187.208 70.75C186.411 71.0677 185.489 71.2266 184.443 71.2266ZM196.481 55V71H192.661V55H196.481ZM205.087 71.2266C203.826 71.2266 202.743 70.9688 201.837 70.4531C200.936 69.9323 200.24 69.2083 199.751 68.2812C199.266 67.349 199.024 66.2682 199.024 65.0391C199.024 63.8047 199.266 62.724 199.751 61.7969C200.24 60.8646 200.936 60.1406 201.837 59.625C202.743 59.1042 203.826 58.8438 205.087 58.8438C206.347 58.8438 207.428 59.1042 208.329 59.625C209.235 60.1406 209.93 60.8646 210.415 61.7969C210.904 62.724 211.149 63.8047 211.149 65.0391C211.149 66.2682 210.904 67.349 210.415 68.2812C209.93 69.2083 209.235 69.9323 208.329 70.4531C207.428 70.9688 206.347 71.2266 205.087 71.2266ZM205.11 68.3437C205.568 68.3437 205.956 68.2031 206.274 67.9219C206.592 67.6406 206.834 67.25 207.001 66.75C207.173 66.25 207.258 65.6719 207.258 65.0156C207.258 64.349 207.173 63.7656 207.001 63.2656C206.834 62.7656 206.592 62.375 206.274 62.0937C205.956 61.8125 205.568 61.6719 205.11 61.6719C204.636 61.6719 204.235 61.8125 203.907 62.0937C203.584 62.375 203.337 62.7656 203.165 63.2656C202.998 63.7656 202.915 64.349 202.915 65.0156C202.915 65.6719 202.998 66.25 203.165 66.75C203.337 67.25 203.584 67.6406 203.907 67.9219C204.235 68.2031 204.636 68.3437 205.11 68.3437ZM213.678 75.5V59H217.459V61.0547H217.577C217.733 60.6901 217.954 60.3385 218.241 60C218.532 59.6615 218.902 59.3854 219.35 59.1719C219.803 58.9531 220.345 58.8438 220.975 58.8438C221.808 58.8438 222.587 59.0625 223.311 59.5C224.04 59.9375 224.629 60.612 225.077 61.5234C225.524 62.4349 225.748 63.5964 225.748 65.0078C225.748 66.3672 225.532 67.5052 225.1 68.4219C224.673 69.3385 224.095 70.026 223.366 70.4844C222.642 70.9427 221.837 71.1719 220.952 71.1719C220.347 71.1719 219.824 71.0729 219.381 70.875C218.939 70.6771 218.566 70.4167 218.264 70.0937C217.967 69.7708 217.738 69.4245 217.577 69.0547H217.498V75.5H213.678ZM217.42 65C217.42 65.6458 217.506 66.2083 217.678 66.6875C217.855 67.1667 218.108 67.5391 218.436 67.8047C218.769 68.0651 219.168 68.1953 219.631 68.1953C220.1 68.1953 220.498 68.0651 220.827 67.8047C221.155 67.5391 221.402 67.1667 221.569 66.6875C221.741 66.2083 221.827 65.6458 221.827 65C221.827 64.3542 221.741 63.7943 221.569 63.3203C221.402 62.8464 221.155 62.4792 220.827 62.2187C220.504 61.9583 220.105 61.8281 219.631 61.8281C219.162 61.8281 218.764 61.9557 218.436 62.2109C218.108 62.4661 217.855 62.8307 217.678 63.3047C217.506 63.7786 217.42 64.3437 217.42 65ZM228.322 71V59H231.955V61.2031H232.088C232.338 60.474 232.76 59.8984 233.354 59.4766C233.947 59.0547 234.656 58.8438 235.479 58.8438C236.312 58.8438 237.025 59.0573 237.619 59.4844C238.213 59.9115 238.591 60.4844 238.752 61.2031H238.877C239.101 60.4896 239.539 59.9193 240.19 59.4922C240.841 59.0599 241.609 58.8438 242.494 58.8438C243.63 58.8438 244.552 59.2083 245.26 59.9375C245.968 60.6615 246.322 61.6562 246.322 62.9219V71H242.502V63.7969C242.502 63.1979 242.348 62.7422 242.041 62.4297C241.734 62.112 241.335 61.9531 240.846 61.9531C240.32 61.9531 239.906 62.125 239.604 62.4687C239.307 62.8073 239.158 63.263 239.158 63.8359V71H235.486V63.7578C235.486 63.2005 235.335 62.7604 235.033 62.4375C234.731 62.1146 234.333 61.9531 233.838 61.9531C233.505 61.9531 233.21 62.0339 232.955 62.1953C232.7 62.3516 232.499 62.5755 232.354 62.8672C232.213 63.1589 232.143 63.5026 232.143 63.8984V71H228.322ZM254.871 71.2266C253.616 71.2266 252.532 70.9792 251.621 70.4844C250.715 69.9844 250.017 69.2734 249.527 68.3516C249.043 67.4245 248.801 66.3229 248.801 65.0469C248.801 63.8073 249.045 62.724 249.535 61.7969C250.025 60.8646 250.715 60.1406 251.605 59.625C252.496 59.1042 253.545 58.8438 254.754 58.8438C255.608 58.8438 256.389 58.9766 257.097 59.2422C257.806 59.5078 258.418 59.901 258.933 60.4219C259.449 60.9427 259.85 61.5859 260.137 62.3516C260.423 63.112 260.566 63.9844 260.566 64.9687V65.9219H250.137V63.7031H257.012C257.006 63.2969 256.91 62.9349 256.722 62.6172C256.535 62.2995 256.277 62.0521 255.949 61.875C255.626 61.6927 255.254 61.6016 254.832 61.6016C254.405 61.6016 254.022 61.6979 253.683 61.8906C253.345 62.0781 253.077 62.3359 252.879 62.6641C252.681 62.987 252.577 63.3542 252.566 63.7656V66.0234C252.566 66.513 252.663 66.9427 252.855 67.3125C253.048 67.6771 253.321 67.9609 253.676 68.1641C254.03 68.3672 254.452 68.4687 254.941 68.4687C255.28 68.4687 255.587 68.4219 255.863 68.3281C256.139 68.2344 256.376 68.0964 256.574 67.9141C256.772 67.7318 256.92 67.5078 257.019 67.2422L260.527 67.3437C260.381 68.1302 260.061 68.8151 259.566 69.3984C259.077 69.9766 258.433 70.4271 257.637 70.75C256.84 71.0677 255.918 71.2266 254.871 71.2266ZM266.91 64.1562V71H263.089V59H266.722V61.2031H266.855C267.121 60.4687 267.574 59.8932 268.214 59.4766C268.855 59.0547 269.618 58.8438 270.503 58.8438C271.347 58.8438 272.079 59.0339 272.699 59.4141C273.324 59.7891 273.808 60.3151 274.152 60.9922C274.501 61.6641 274.673 62.4505 274.668 63.3516V71H270.847V64.1016C270.852 63.4349 270.683 62.9141 270.339 62.5391C270.001 62.1641 269.53 61.9766 268.925 61.9766C268.524 61.9766 268.17 62.0651 267.863 62.2422C267.561 62.4141 267.326 62.6615 267.16 62.9844C266.998 63.3073 266.915 63.6979 266.91 64.1562ZM284.378 59V61.8125H276.808V59H284.378ZM278.394 56.125H282.214V67.2266C282.214 67.4609 282.251 67.651 282.324 67.7969C282.402 67.9375 282.514 68.0391 282.659 68.1016C282.805 68.1589 282.98 68.1875 283.183 68.1875C283.329 68.1875 283.482 68.1745 283.644 68.1484C283.81 68.1172 283.935 68.0911 284.019 68.0703L284.597 70.8281C284.415 70.8802 284.157 70.9453 283.824 71.0234C283.495 71.1016 283.102 71.151 282.644 71.1719C281.748 71.2135 280.98 71.1094 280.339 70.8594C279.704 70.6042 279.217 70.2083 278.878 69.6719C278.545 69.1354 278.383 68.4609 278.394 67.6484V56.125ZM138.855 95H134.699L140.098 79H145.246L150.645 95H146.488L142.73 83.0312H142.605L138.855 95ZM138.301 88.7031H146.988V91.6406H138.301V88.7031ZM157.781 99.75C156.64 99.75 155.664 99.5911 154.851 99.2734C154.039 98.9557 153.401 98.5208 152.937 97.9688C152.474 97.4167 152.195 96.7917 152.101 96.0938L155.718 95.8906C155.786 96.1354 155.911 96.349 156.093 96.5313C156.281 96.7135 156.523 96.8542 156.82 96.9531C157.122 97.0521 157.476 97.1016 157.883 97.1016C158.523 97.1016 159.052 96.9453 159.468 96.6328C159.89 96.3255 160.101 95.7865 160.101 95.0156V92.9062H159.968C159.817 93.276 159.588 93.6068 159.281 93.8984C158.974 94.1901 158.591 94.4193 158.133 94.5859C157.679 94.7526 157.159 94.8359 156.57 94.8359C155.695 94.8359 154.893 94.6328 154.164 94.2266C153.44 93.8151 152.859 93.1797 152.422 92.3203C151.989 91.4557 151.773 90.3437 151.773 88.9844C151.773 87.5833 151.997 86.4297 152.445 85.5234C152.893 84.612 153.479 83.9375 154.203 83.5C154.932 83.0625 155.716 82.8438 156.554 82.8438C157.185 82.8438 157.724 82.9531 158.172 83.1719C158.625 83.3854 158.997 83.6615 159.289 84C159.58 84.3385 159.802 84.6901 159.953 85.0547H160.062V83H163.867V95.0469C163.867 96.0625 163.612 96.9193 163.101 97.6172C162.591 98.3151 161.877 98.8438 160.961 99.2031C160.044 99.5677 158.984 99.75 157.781 99.75ZM157.898 92.0547C158.362 92.0547 158.758 91.9323 159.086 91.6875C159.414 91.4427 159.666 91.0911 159.843 90.6328C160.021 90.1745 160.109 89.625 160.109 88.9844C160.109 88.3333 160.021 87.7734 159.843 87.3047C159.672 86.8307 159.419 86.4661 159.086 86.2109C158.758 85.9557 158.362 85.8281 157.898 85.8281C157.424 85.8281 157.023 85.9583 156.695 86.2187C156.367 86.4792 156.117 86.8464 155.945 87.3203C155.778 87.7891 155.695 88.3437 155.695 88.9844C155.695 89.625 155.781 90.1745 155.953 90.6328C156.125 91.0911 156.372 91.4427 156.695 91.6875C157.023 91.9323 157.424 92.0547 157.898 92.0547ZM172.484 95.2266C171.229 95.2266 170.145 94.9792 169.234 94.4844C168.328 93.9844 167.63 93.2734 167.14 92.3516C166.656 91.4245 166.414 90.3229 166.414 89.0469C166.414 87.8073 166.658 86.724 167.148 85.7969C167.637 84.8646 168.328 84.1406 169.218 83.625C170.109 83.1042 171.158 82.8438 172.367 82.8438C173.221 82.8438 174.002 82.9766 174.71 83.2422C175.419 83.5078 176.031 83.901 176.546 84.4219C177.062 84.9427 177.463 85.5859 177.749 86.3516C178.036 87.112 178.179 87.9844 178.179 88.9687V89.9219H167.749V87.7031H174.624C174.619 87.2969 174.523 86.9349 174.335 86.6172C174.148 86.2995 173.89 86.0521 173.562 85.875C173.239 85.6927 172.867 85.6016 172.445 85.6016C172.018 85.6016 171.635 85.6979 171.296 85.8906C170.958 86.0781 170.69 86.3359 170.492 86.6641C170.294 86.987 170.19 87.3542 170.179 87.7656V90.0234C170.179 90.513 170.276 90.9427 170.468 91.3125C170.661 91.6771 170.934 91.9609 171.289 92.1641C171.643 92.3672 172.065 92.4687 172.554 92.4687C172.893 92.4687 173.2 92.4219 173.476 92.3281C173.752 92.2344 173.989 92.0964 174.187 91.9141C174.385 91.7318 174.533 91.5078 174.632 91.2422L178.14 91.3437C177.994 92.1302 177.674 92.8151 177.179 93.3984C176.69 93.9766 176.046 94.4271 175.249 94.75C174.453 95.0677 173.531 95.2266 172.484 95.2266ZM184.523 88.1562V95H180.702V83H184.335V85.2031H184.468C184.734 84.4687 185.187 83.8932 185.827 83.4766C186.468 83.0547 187.231 82.8438 188.116 82.8438C188.96 82.8438 189.692 83.0339 190.312 83.4141C190.937 83.7891 191.421 84.3151 191.765 84.9922C192.114 85.6641 192.286 86.4505 192.28 87.3516V95H188.46V88.1016C188.465 87.4349 188.296 86.9141 187.952 86.5391C187.614 86.1641 187.142 85.9766 186.538 85.9766C186.137 85.9766 185.783 86.0651 185.476 86.2422C185.174 86.4141 184.939 86.6615 184.773 86.9844C184.611 87.3073 184.528 87.6979 184.523 88.1562ZM200.819 95.2266C199.554 95.2266 198.468 94.9661 197.561 94.4453C196.66 93.9245 195.968 93.2005 195.483 92.2734C194.999 91.3411 194.757 90.263 194.757 89.0391C194.757 87.8099 194.999 86.7318 195.483 85.8047C195.973 84.8724 196.668 84.1458 197.569 83.625C198.475 83.1042 199.556 82.8438 200.811 82.8438C201.921 82.8438 202.887 83.0443 203.71 83.4453C204.538 83.8464 205.184 84.4141 205.647 85.1484C206.116 85.8776 206.364 86.7344 206.39 87.7188H202.819C202.746 87.1042 202.538 86.6224 202.194 86.2734C201.856 85.9245 201.413 85.75 200.866 85.75C200.423 85.75 200.035 85.875 199.702 86.125C199.369 86.3698 199.108 86.7344 198.921 87.2187C198.739 87.6979 198.647 88.2917 198.647 89C198.647 89.7083 198.739 90.3073 198.921 90.7969C199.108 91.2812 199.369 91.6484 199.702 91.8984C200.035 92.1432 200.423 92.2656 200.866 92.2656C201.22 92.2656 201.533 92.1901 201.804 92.0391C202.08 91.888 202.306 91.6667 202.483 91.375C202.66 91.0781 202.772 90.7187 202.819 90.2969H206.39C206.353 91.2865 206.106 92.151 205.647 92.8906C205.194 93.6302 204.556 94.2057 203.733 94.6172C202.916 95.0234 201.944 95.2266 200.819 95.2266ZM211.253 99.5C210.794 99.5 210.362 99.4635 209.956 99.3906C209.549 99.3229 209.2 99.2318 208.909 99.1172L209.753 96.3438C210.128 96.4688 210.466 96.5417 210.768 96.5625C211.075 96.5833 211.339 96.5339 211.557 96.4141C211.781 96.2995 211.953 96.0938 212.073 95.7969L212.221 95.4375L207.956 83H211.956L214.167 91.5625H214.292L216.534 83H220.557L216.034 96.1484C215.815 96.8047 215.505 97.3828 215.104 97.8828C214.708 98.388 214.195 98.7839 213.565 99.0703C212.94 99.3568 212.169 99.5 211.253 99.5ZM150.496 111C150.496 112.76 150.158 114.253 149.48 115.477C148.803 116.701 147.887 117.63 146.73 118.266C145.579 118.901 144.288 119.219 142.855 119.219C141.418 119.219 140.124 118.898 138.973 118.258C137.822 117.617 136.908 116.687 136.23 115.469C135.559 114.245 135.223 112.755 135.223 111C135.223 109.24 135.559 107.747 136.23 106.523C136.908 105.299 137.822 104.37 138.973 103.734C140.124 103.099 141.418 102.781 142.855 102.781C144.288 102.781 145.579 103.099 146.73 103.734C147.887 104.37 148.803 105.299 149.48 106.523C150.158 107.747 150.496 109.24 150.496 111ZM146.543 111C146.543 109.958 146.395 109.078 146.098 108.359C145.806 107.641 145.384 107.096 144.832 106.727C144.285 106.357 143.626 106.172 142.855 106.172C142.09 106.172 141.431 106.357 140.879 106.727C140.327 107.096 139.902 107.641 139.605 108.359C139.314 109.078 139.168 109.958 139.168 111C139.168 112.042 139.314 112.922 139.605 113.641C139.902 114.359 140.327 114.904 140.879 115.273C141.431 115.643 142.09 115.828 142.855 115.828C143.626 115.828 144.285 115.643 144.832 115.273C145.384 114.904 145.806 114.359 146.098 113.641C146.395 112.922 146.543 112.042 146.543 111ZM160.146 107V109.812H152.427V107H160.146ZM154.037 119V106.391C154.037 105.464 154.211 104.695 154.56 104.086C154.909 103.471 155.394 103.013 156.013 102.711C156.633 102.404 157.349 102.25 158.162 102.25C158.693 102.25 159.193 102.292 159.662 102.375C160.136 102.453 160.487 102.523 160.717 102.586L160.107 105.383C159.967 105.336 159.795 105.297 159.592 105.266C159.394 105.234 159.206 105.219 159.029 105.219C158.581 105.219 158.274 105.318 158.107 105.516C157.94 105.714 157.857 105.984 157.857 106.328V119H154.037ZM181.472 103V119H178.191L171.823 109.766H171.722V119H167.855V103H171.183L177.48 112.219H177.612V103H181.472ZM184.475 119V107H188.296V119H184.475ZM186.39 105.602C185.853 105.602 185.392 105.424 185.007 105.07C184.621 104.711 184.429 104.279 184.429 103.773C184.429 103.273 184.621 102.846 185.007 102.492C185.392 102.133 185.853 101.953 186.39 101.953C186.931 101.953 187.392 102.133 187.772 102.492C188.158 102.846 188.35 103.273 188.35 103.773C188.35 104.279 188.158 104.711 187.772 105.07C187.392 105.424 186.931 105.602 186.39 105.602ZM196.893 123.75C195.753 123.75 194.776 123.591 193.964 123.273C193.151 122.956 192.513 122.521 192.049 121.969C191.586 121.417 191.307 120.792 191.214 120.094L194.831 119.891C194.898 120.135 195.023 120.349 195.206 120.531C195.393 120.714 195.635 120.854 195.932 120.953C196.234 121.052 196.589 121.102 196.995 121.102C197.635 121.102 198.164 120.945 198.581 120.633C199.003 120.326 199.214 119.786 199.214 119.016V116.906H199.081C198.93 117.276 198.7 117.607 198.393 117.898C198.086 118.19 197.703 118.419 197.245 118.586C196.792 118.753 196.271 118.836 195.682 118.836C194.807 118.836 194.005 118.633 193.276 118.227C192.552 117.815 191.971 117.18 191.534 116.32C191.102 115.456 190.885 114.344 190.885 112.984C190.885 111.583 191.109 110.43 191.557 109.523C192.005 108.612 192.591 107.937 193.315 107.5C194.044 107.062 194.828 106.844 195.667 106.844C196.297 106.844 196.836 106.953 197.284 107.172C197.737 107.385 198.109 107.661 198.401 108C198.693 108.339 198.914 108.69 199.065 109.055H199.174V107H202.979V119.047C202.979 120.063 202.724 120.919 202.214 121.617C201.703 122.315 200.99 122.844 200.073 123.203C199.156 123.568 198.096 123.75 196.893 123.75ZM197.01 116.055C197.474 116.055 197.87 115.932 198.198 115.687C198.526 115.443 198.779 115.091 198.956 114.633C199.133 114.174 199.221 113.625 199.221 112.984C199.221 112.333 199.133 111.773 198.956 111.305C198.784 110.831 198.531 110.466 198.198 110.211C197.87 109.956 197.474 109.828 197.01 109.828C196.536 109.828 196.135 109.958 195.807 110.219C195.479 110.479 195.229 110.846 195.057 111.32C194.891 111.789 194.807 112.344 194.807 112.984C194.807 113.625 194.893 114.174 195.065 114.633C195.237 115.091 195.484 115.443 195.807 115.687C196.135 115.932 196.536 116.055 197.01 116.055ZM211.596 119.227C210.341 119.227 209.258 118.979 208.346 118.484C207.44 117.984 206.742 117.273 206.252 116.352C205.768 115.424 205.526 114.323 205.526 113.047C205.526 111.807 205.771 110.724 206.26 109.797C206.75 108.865 207.44 108.141 208.33 107.625C209.221 107.104 210.271 106.844 211.479 106.844C212.333 106.844 213.114 106.977 213.823 107.242C214.531 107.508 215.143 107.901 215.659 108.422C216.174 108.943 216.575 109.586 216.862 110.352C217.148 111.112 217.291 111.984 217.291 112.969V113.922H206.862V111.703H213.737C213.731 111.297 213.635 110.935 213.448 110.617C213.26 110.299 213.002 110.052 212.674 109.875C212.351 109.693 211.979 109.602 211.557 109.602C211.13 109.602 210.747 109.698 210.409 109.891C210.07 110.078 209.802 110.336 209.604 110.664C209.406 110.987 209.302 111.354 209.291 111.766V114.023C209.291 114.513 209.388 114.943 209.58 115.312C209.773 115.677 210.047 115.961 210.401 116.164C210.755 116.367 211.177 116.469 211.666 116.469C212.005 116.469 212.312 116.422 212.588 116.328C212.864 116.234 213.101 116.096 213.299 115.914C213.497 115.732 213.646 115.508 213.744 115.242L217.252 115.344C217.106 116.13 216.786 116.815 216.291 117.398C215.802 117.977 215.159 118.427 214.362 118.75C213.565 119.068 212.643 119.227 211.596 119.227ZM219.815 119V107H223.525V109.187H223.65C223.869 108.396 224.226 107.807 224.721 107.422C225.216 107.031 225.791 106.836 226.447 106.836C226.624 106.836 226.807 106.849 226.994 106.875C227.182 106.896 227.356 106.93 227.518 106.977V110.297C227.335 110.234 227.096 110.185 226.799 110.148C226.507 110.112 226.247 110.094 226.018 110.094C225.565 110.094 225.156 110.195 224.791 110.398C224.432 110.596 224.148 110.875 223.94 111.234C223.736 111.589 223.635 112.005 223.635 112.484V119H219.815ZM229.646 119V107H233.467V119H229.646ZM231.56 105.602C231.024 105.602 230.563 105.424 230.178 105.07C229.792 104.711 229.599 104.279 229.599 103.773C229.599 103.273 229.792 102.846 230.178 102.492C230.563 102.133 231.024 101.953 231.56 101.953C232.102 101.953 232.563 102.133 232.943 102.492C233.329 102.846 233.521 103.273 233.521 103.773C233.521 104.279 233.329 104.711 232.943 105.07C232.563 105.424 232.102 105.602 231.56 105.602ZM239.853 119.203C239.087 119.203 238.408 119.076 237.814 118.82C237.225 118.56 236.759 118.169 236.416 117.648C236.077 117.122 235.908 116.464 235.908 115.672C235.908 115.005 236.025 114.443 236.259 113.984C236.494 113.526 236.817 113.154 237.228 112.867C237.64 112.581 238.113 112.365 238.65 112.219C239.186 112.068 239.759 111.966 240.369 111.914C241.051 111.852 241.6 111.786 242.017 111.719C242.434 111.646 242.736 111.544 242.923 111.414C243.116 111.279 243.212 111.089 243.212 110.844V110.805C243.212 110.404 243.074 110.094 242.798 109.875C242.522 109.656 242.15 109.547 241.681 109.547C241.176 109.547 240.77 109.656 240.462 109.875C240.155 110.094 239.96 110.396 239.877 110.781L236.353 110.656C236.457 109.927 236.725 109.276 237.158 108.703C237.595 108.125 238.194 107.672 238.955 107.344C239.72 107.01 240.64 106.844 241.712 106.844C242.478 106.844 243.184 106.935 243.83 107.117C244.475 107.294 245.038 107.555 245.517 107.898C245.996 108.237 246.366 108.654 246.627 109.148C246.892 109.643 247.025 110.208 247.025 110.844V119H243.431V117.328H243.337C243.124 117.734 242.85 118.078 242.517 118.359C242.189 118.641 241.801 118.852 241.353 118.992C240.91 119.133 240.41 119.203 239.853 119.203ZM241.033 116.703C241.444 116.703 241.814 116.62 242.142 116.453C242.475 116.286 242.741 116.057 242.939 115.766C243.137 115.469 243.236 115.125 243.236 114.734V113.594C243.127 113.651 242.994 113.703 242.837 113.75C242.686 113.797 242.52 113.841 242.337 113.883C242.155 113.924 241.968 113.961 241.775 113.992C241.582 114.023 241.397 114.052 241.22 114.078C240.861 114.135 240.554 114.224 240.298 114.344C240.048 114.464 239.856 114.62 239.72 114.812C239.59 115 239.525 115.224 239.525 115.484C239.525 115.88 239.666 116.182 239.947 116.391C240.233 116.599 240.595 116.703 241.033 116.703Z" fill="white"/>
<path d="M81.1834 51.1836C76.7834 39.5836 81.3501 31.3503 84.1834 28.6836C88.9833 34.6836 90.1835 44.8503 90.1836 49.1836L81.1834 51.1836Z" fill="#FF0000"/>
<path d="M78.6835 55.587C60.6554 67.7388 60.5942 84.5018 62.8171 91.3643C76.3218 87.75 87.7236 74.2888 91.7363 68.0099L78.6835 55.587Z" fill="#336666"/>
<path d="M91.4703 60.8961C101.967 66.9691 110.624 63.8358 113.641 61.51C108.607 55.9254 98.9908 53.174 94.8116 52.4963L91.4703 60.8961Z" fill="#4CB0B0"/>
<path d="M83.391 57.9032C87.9287 61.8017 92.0226 59.1828 93.5023 57.3861C91.4419 53.6018 87.1633 52.0454 85.2815 51.7403L83.391 57.9032Z" fill="#FFE600"/>
<path d="M87.132 24.8773C93.5098 34.3201 96.24 45.7583 94.8144 57.0636C93.3889 68.369 87.9047 78.7714 79.3824 86.3354C70.8601 93.8993 59.8801 98.1095 48.4854 98.1827C37.0908 98.2559 26.0576 94.1869 17.4389 86.7331C8.82019 79.2792 3.2029 68.948 1.63229 57.6619C0.0616807 46.3758 2.64472 34.9035 8.90077 25.3796C15.1568 15.8557 24.6598 8.92886 35.6414 5.88807C46.6231 2.84728 58.3354 3.89959 68.5992 8.8492L66.2717 13.6756C57.1781 9.29027 46.801 8.35793 37.0713 11.0521C27.3417 13.7462 18.9221 19.8833 13.3793 28.3214C7.83645 36.7595 5.54789 46.9239 6.93944 56.9234C8.33099 66.9228 13.3079 76.0761 20.944 82.6802C28.5802 89.2843 38.3555 92.8893 48.451 92.8245C58.5466 92.7597 68.2748 89.0294 75.8255 82.3278C83.3763 75.6262 88.2352 66.4097 89.4982 56.3933C90.7613 46.3768 88.3424 36.2426 82.6917 27.8764L87.132 24.8773Z" fill="white"/>
<path d="M110.76 18.6358C116.32 21.0602 120.833 25.3866 123.49 30.8385C126.147 36.2904 126.774 42.5108 125.258 48.3832C123.742 54.2557 120.183 59.3956 115.219 62.8804C110.255 66.3652 104.212 67.9667 98.1737 67.3974C92.1356 66.8282 86.498 64.1254 82.2729 59.7743C78.0479 55.4233 75.5119 49.7087 75.1203 43.6565C74.7287 37.6042 76.5071 31.6105 80.1362 26.7513C83.7654 21.892 89.0076 18.4853 94.9221 17.1427L95.9259 21.5645C91.0631 22.6684 86.753 25.4693 83.7692 29.4645C80.7854 33.4597 79.3233 38.3876 79.6452 43.3637C79.9672 48.3398 82.0522 53.0381 85.526 56.6155C88.9997 60.1929 93.6348 62.4151 98.5993 62.8831C103.564 63.3511 108.532 62.0344 112.614 59.1693C116.695 56.3041 119.621 52.0782 120.867 47.25C122.114 42.4218 121.598 37.3074 119.414 32.825C117.229 28.3425 113.518 24.7854 108.948 22.7922L110.76 18.6358Z" fill="white"/>
<path d="M118.243 104.754C112.829 110.76 105.451 114.64 97.434 115.697C89.4168 116.755 81.2854 114.92 74.4991 110.522C67.7129 106.124 62.7163 99.4518 60.4062 91.7022C58.096 83.9527 58.6236 75.6334 61.8942 68.2378C65.1648 60.8422 70.9643 54.8544 78.2517 51.3492C85.5391 47.8441 93.8372 47.051 101.657 49.1125C109.476 51.1739 116.305 55.9548 120.917 62.5971C125.529 69.2394 127.623 77.3081 126.822 85.3549L120.806 84.7564C121.464 78.1405 119.743 71.5065 115.951 66.0454C112.159 60.5842 106.544 56.6534 100.115 54.9585C93.6864 53.2636 86.8639 53.9157 80.8723 56.7975C74.8807 59.6794 70.1125 64.6025 67.4235 70.683C64.7344 76.7636 64.3006 83.6035 66.2 89.9751C68.0994 96.3466 72.2075 101.833 77.787 105.448C83.3665 109.064 90.0521 110.573 96.6436 109.703C103.235 108.834 109.301 105.644 113.753 100.706L118.243 104.754Z" fill="white"/>
</svg>
